<svg width="1162" height="378" viewBox="0 0 1162 378" fill="none" xmlns="http://www.w3.org/2000/svg">
    <g filter="url(#filter0_d_21_15)">
        <g filter="url(#filter1_d_21_15)">
            <path fill-rule="evenodd" clip-rule="evenodd"
                d="M240.5 71.2886V304.243H248.354C275.964 286.824 352.889 258.407 439.716 284.095L444 56.1781C439.954 52.1906 427.149 43.8378 408.298 42.3268V1.40242C376.643 -3.84429 298.765 2.78756 240.5 71.2886ZM425.435 63.7334L408.298 56.1781V224.912C337.466 227.934 290.244 258.072 275.488 272.762C325.185 254.63 396.16 259.751 425.435 264.577V63.7334Z"
                fill="url(#paint0_linear_21_15)" />
            <path fill-rule="evenodd" clip-rule="evenodd"
                d="M240.5 71.2886V304.243H248.354C275.964 286.824 352.889 258.407 439.716 284.095L444 56.1781C439.954 52.1906 427.149 43.8378 408.298 42.3268V1.40242C376.643 -3.84429 298.765 2.78756 240.5 71.2886ZM425.435 63.7334L408.298 56.1781V224.912C337.466 227.934 290.244 258.072 275.488 272.762C325.185 254.63 396.16 259.751 425.435 264.577V63.7334Z"
                fill="url(#paint1_linear_21_15)" />
            <path fill-rule="evenodd" clip-rule="evenodd"
                d="M240.5 71.2886V304.243H232.646C205.036 286.824 128.111 258.407 41.2842 284.095L37 56.1781C41.0462 52.1906 53.8512 43.8378 72.7018 42.3268V1.40242C104.357 -3.84429 182.235 2.78756 240.5 71.2886ZM55.5649 63.7334L72.7018 56.1781V224.912C143.534 227.934 190.756 258.072 205.512 272.762C155.815 254.63 84.8404 259.751 55.5649 264.577V63.7334Z"
                fill="url(#paint2_linear_21_15)" />
            <path fill-rule="evenodd" clip-rule="evenodd"
                d="M240.5 71.2886V304.243H232.646C205.036 286.824 128.111 258.407 41.2842 284.095L37 56.1781C41.0462 52.1906 53.8512 43.8378 72.7018 42.3268V1.40242C104.357 -3.84429 182.235 2.78756 240.5 71.2886ZM55.5649 63.7334L72.7018 56.1781V224.912C143.534 227.934 190.756 258.072 205.512 272.762C155.815 254.63 84.8404 259.751 55.5649 264.577V63.7334Z"
                fill="url(#paint3_linear_21_15)" />
        </g>
    </g>
    <path
        d="M558.936 108.352L553.304 111.68C546.776 101.184 536.28 99.648 526.168 99.52C515.672 99.52 499.032 103.36 499.032 117.696C499.032 129.088 511.32 131.776 526.424 134.592C543.704 137.92 561.624 140.992 561.624 160.32C561.496 180.544 541.144 185.408 526.168 185.408C512.216 185.408 496.344 179.648 489.432 165.952L495.576 162.88C501.08 173.76 515.16 179.136 526.168 179.136C537.176 179.136 554.712 176.064 554.712 160.192C554.84 146.752 539.992 143.808 525.272 140.992C508.888 137.792 492.12 134.464 492.12 117.952C491.736 99.008 511.448 93.12 526.168 93.12C538.968 93.12 550.104 95.168 558.936 108.352ZM622.656 170.944L626.88 175.168C620.48 181.568 612.16 184.64 603.84 184.64C586.048 184.64 571.328 172.352 571.328 152.384C571.328 132.416 585.536 120.128 603.84 120.128C612.16 120.128 620.48 123.328 626.88 129.6L622.784 133.568C617.664 128.448 610.624 126.016 603.84 126.016C589.504 126.016 577.472 135.36 577.472 152.384C577.472 169.408 589.504 178.752 603.84 178.752C610.624 178.752 617.536 176.064 622.656 170.944ZM639.665 94.4H645.681V132.544C650.801 123.456 659.633 120 668.465 119.872C686.129 119.872 694.961 131.264 694.961 147.776V184H688.817V147.776C688.817 134.72 682.673 125.888 668.465 125.888C655.153 125.888 645.937 136.128 645.937 149.312V184H639.665V94.4ZM740.474 184.896C722.682 184.896 708.346 172.608 708.346 152.512C708.346 132.416 722.682 119.616 740.474 119.616C758.266 119.616 772.602 132.416 772.602 152.512C772.602 172.608 758.266 184.896 740.474 184.896ZM740.474 178.752C754.81 178.752 766.458 168.896 766.458 152.512C766.458 136.128 754.81 125.504 740.474 125.504C726.138 125.504 714.49 136.128 714.49 152.512C714.49 168.896 726.138 178.752 740.474 178.752ZM816.224 184.896C798.432 184.896 784.096 172.608 784.096 152.512C784.096 132.416 798.432 119.616 816.224 119.616C834.016 119.616 848.352 132.416 848.352 152.512C848.352 172.608 834.016 184.896 816.224 184.896ZM816.224 178.752C830.56 178.752 842.208 168.896 842.208 152.512C842.208 136.128 830.56 125.504 816.224 125.504C801.888 125.504 790.24 136.128 790.24 152.512C790.24 168.896 801.888 178.752 816.224 178.752ZM862.79 94.4H869.062V184H862.79V94.4ZM963.596 184.128H946.828V147.904H902.796V184.128H885.9V94.528H902.796V132.288H946.828V94.528H963.596V184.128ZM978.754 120.896H994.37V153.92C994.37 163.52 999.618 170.816 1009.6 170.816C1019.2 170.816 1025.73 162.752 1025.73 153.152V120.896H1041.22V184.128H1027.27L1026.24 175.552C1019.71 181.952 1013.7 185.024 1004.87 185.024C989.762 185.024 978.754 173.632 978.754 154.048V120.896ZM1089.94 133.952C1080.08 133.952 1071.64 141.376 1071.64 152.384C1071.64 163.776 1080.08 170.944 1089.94 170.944C1099.92 170.944 1107.86 163.392 1107.86 152.384C1107.86 140.992 1099.92 133.952 1089.94 133.952ZM1055 94.528H1070.61V129.472C1074.32 122.944 1084.69 119.36 1091.35 119.36C1109.78 119.36 1123.48 130.624 1123.48 152.384C1123.48 173.12 1109.52 185.408 1090.96 185.408C1083.28 185.408 1075.48 182.848 1070.61 175.296L1069.59 184H1055V94.528Z"
        fill="white" />
    <defs>
        <filter id="filter0_d_21_15" x="10.8225" y="0" width="459.355" height="356.597" filterUnits="userSpaceOnUse"
            color-interpolation-filters="sRGB">
            <feFlood flood-opacity="0" result="BackgroundImageFix" />
            <feColorMatrix in="SourceAlpha" type="matrix" values="0 0 0 0 0 0 0 0 0 0 0 0 0 0 0 0 0 0 127 0"
                result="hardAlpha" />
            <feOffset dy="26.1775" />
            <feGaussianBlur stdDeviation="13.0887" />
            <feComposite in2="hardAlpha" operator="out" />
            <feColorMatrix type="matrix" values="0 0 0 0 0 0 0 0 0 0 0 0 0 0 0 0 0 0 0.25 0" />
            <feBlend mode="normal" in2="BackgroundImageFix" result="effect1_dropShadow_21_15" />
            <feBlend mode="normal" in="SourceGraphic" in2="effect1_dropShadow_21_15" result="shape" />
        </filter>
        <filter id="filter1_d_21_15" x="0.594231" y="0" width="479.812" height="377.054" filterUnits="userSpaceOnUse"
            color-interpolation-filters="sRGB">
            <feFlood flood-opacity="0" result="BackgroundImageFix" />
            <feColorMatrix in="SourceAlpha" type="matrix" values="0 0 0 0 0 0 0 0 0 0 0 0 0 0 0 0 0 0 127 0"
                result="hardAlpha" />
            <feOffset dy="36.4058" />
            <feGaussianBlur stdDeviation="18.2029" />
            <feComposite in2="hardAlpha" operator="out" />
            <feColorMatrix type="matrix" values="0 0 0 0 0 0 0 0 0 0 0 0 0 0 0 0 0 0 0.25 0" />
            <feBlend mode="normal" in2="BackgroundImageFix" result="effect1_dropShadow_21_15" />
            <feBlend mode="normal" in="SourceGraphic" in2="effect1_dropShadow_21_15" result="shape" />
        </filter>
        <linearGradient id="paint0_linear_21_15" x1="444.653" y1="181.319" x2="243.288" y2="182.335"
            gradientUnits="userSpaceOnUse">
            <stop offset="0.078125" stop-color="#2697BD" />
            <stop offset="1" stop-color="#342B66" stop-opacity="0.9" />
        </linearGradient>
        <linearGradient id="paint1_linear_21_15" x1="444.653" y1="181.319" x2="243.288" y2="182.335"
            gradientUnits="userSpaceOnUse">
            <stop offset="0.078125" stop-color="#2697BD" />
            <stop offset="1" stop-color="#342B66" stop-opacity="0.9" />
        </linearGradient>
        <linearGradient id="paint2_linear_21_15" x1="36.1199" y1="181.319" x2="237.485" y2="182.335"
            gradientUnits="userSpaceOnUse">
            <stop offset="0.078125" stop-color="#2697BD" />
            <stop offset="1" stop-color="#342B66" stop-opacity="0.9" />
        </linearGradient>
        <linearGradient id="paint3_linear_21_15" x1="36.1199" y1="181.319" x2="237.485" y2="182.335"
            gradientUnits="userSpaceOnUse">
            <stop offset="0.078125" stop-color="#2697BD" />
            <stop offset="1" stop-color="#342B66" stop-opacity="0.9" />
        </linearGradient>
    </defs>
</svg>