<svg id="visual" viewBox="0 0 960 540" width="960" height="540" xmlns="http://www.w3.org/2000/svg" xmlns:xlink="http://www.w3.org/1999/xlink" version="1.1"><g stroke-width="1" stroke-linejoin="bevel"><path d="M486 289L564 306L622 234Z" fill="#583ca6" stroke="#583ca6"></path><path d="M622 234L458 181L486 289Z" fill="#583ca6" stroke="#583ca6"></path><path d="M586 107L481 126L458 181Z" fill="#1b4da1" stroke="#1b4da1"></path><path d="M622 234L586 107L458 181Z" fill="#2d4aa4" stroke="#2d4aa4"></path><path d="M374 72L374 192L458 181Z" fill="#254ba3" stroke="#254ba3"></path><path d="M458 181L374 192L486 289Z" fill="#3c46a6" stroke="#3c46a6"></path><path d="M736 342L706 184L622 234Z" fill="#583ca6" stroke="#583ca6"></path><path d="M622 234L706 184L586 107Z" fill="#3c46a6" stroke="#3c46a6"></path><path d="M564 306L736 342L622 234Z" fill="#004f9e" stroke="#004f9e"></path><path d="M481 126L374 72L458 181Z" fill="#513fa6" stroke="#513fa6"></path><path d="M466 0L374 72L481 126Z" fill="#254ba3" stroke="#254ba3"></path><path d="M494 465L626 442L564 306Z" fill="#3c46a6" stroke="#3c46a6"></path><path d="M564 306L626 442L736 342Z" fill="#1b4da1" stroke="#1b4da1"></path><path d="M494 465L564 306L486 289Z" fill="#4b41a6" stroke="#4b41a6"></path><path d="M713 0L582 0L586 107Z" fill="#004f9e" stroke="#004f9e"></path><path d="M586 107L466 0L481 126Z" fill="#513fa6" stroke="#513fa6"></path><path d="M818 141L748 115L706 184Z" fill="#4b41a6" stroke="#4b41a6"></path><path d="M706 184L748 115L586 107Z" fill="#513fa6" stroke="#513fa6"></path><path d="M582 0L466 0L586 107Z" fill="#104ea0" stroke="#104ea0"></path><path d="M373 435L494 465L486 289Z" fill="#004f9e" stroke="#004f9e"></path><path d="M273 195L331 350L374 192Z" fill="#1b4da1" stroke="#1b4da1"></path><path d="M374 192L331 350L486 289Z" fill="#583ca6" stroke="#583ca6"></path><path d="M331 350L373 435L486 289Z" fill="#104ea0" stroke="#104ea0"></path><path d="M626 442L722 423L736 342Z" fill="#583ca6" stroke="#583ca6"></path><path d="M261 130L273 195L374 192Z" fill="#4b41a6" stroke="#4b41a6"></path><path d="M748 115L713 0L586 107Z" fill="#3548a5" stroke="#3548a5"></path><path d="M829 303L818 141L706 184Z" fill="#4444a6" stroke="#4444a6"></path><path d="M748 115L850 0L713 0Z" fill="#3c46a6" stroke="#3c46a6"></path><path d="M829 303L706 184L736 342Z" fill="#004f9e" stroke="#004f9e"></path><path d="M257 0L261 130L374 72Z" fill="#104ea0" stroke="#104ea0"></path><path d="M374 72L261 130L374 192Z" fill="#3c46a6" stroke="#3c46a6"></path><path d="M824 416L829 303L736 342Z" fill="#254ba3" stroke="#254ba3"></path><path d="M466 0L345 0L374 72Z" fill="#004f9e" stroke="#004f9e"></path><path d="M626 442L692 540L722 423Z" fill="#254ba3" stroke="#254ba3"></path><path d="M494 465L574 540L626 442Z" fill="#104ea0" stroke="#104ea0"></path><path d="M502 540L574 540L494 465Z" fill="#513fa6" stroke="#513fa6"></path><path d="M379 540L502 540L494 465Z" fill="#4444a6" stroke="#4444a6"></path><path d="M829 303L866 181L818 141Z" fill="#254ba3" stroke="#254ba3"></path><path d="M818 141L850 0L748 115Z" fill="#004f9e" stroke="#004f9e"></path><path d="M273 195L234 359L331 350Z" fill="#4444a6" stroke="#4444a6"></path><path d="M331 350L255 424L373 435Z" fill="#513fa6" stroke="#513fa6"></path><path d="M373 435L379 540L494 465Z" fill="#104ea0" stroke="#104ea0"></path><path d="M151 294L234 359L273 195Z" fill="#583ca6" stroke="#583ca6"></path><path d="M722 423L824 416L736 342Z" fill="#104ea0" stroke="#104ea0"></path><path d="M829 303L960 211L866 181Z" fill="#3548a5" stroke="#3548a5"></path><path d="M817 540L824 416L722 423Z" fill="#3548a5" stroke="#3548a5"></path><path d="M234 359L255 424L331 350Z" fill="#2d4aa4" stroke="#2d4aa4"></path><path d="M574 540L692 540L626 442Z" fill="#1b4da1" stroke="#1b4da1"></path><path d="M255 424L379 540L373 435Z" fill="#004f9e" stroke="#004f9e"></path><path d="M345 0L257 0L374 72Z" fill="#3c46a6" stroke="#3c46a6"></path><path d="M112 243L151 294L273 195Z" fill="#4444a6" stroke="#4444a6"></path><path d="M960 76L850 0L818 141Z" fill="#3c46a6" stroke="#3c46a6"></path><path d="M234 359L134 417L255 424Z" fill="#4444a6" stroke="#4444a6"></path><path d="M150 131L273 195L261 130Z" fill="#2d4aa4" stroke="#2d4aa4"></path><path d="M257 0L150 131L261 130Z" fill="#3548a5" stroke="#3548a5"></path><path d="M692 540L817 540L722 423Z" fill="#583ca6" stroke="#583ca6"></path><path d="M960 323L960 211L829 303Z" fill="#254ba3" stroke="#254ba3"></path><path d="M960 323L829 303L824 416Z" fill="#583ca6" stroke="#583ca6"></path><path d="M866 181L960 76L818 141Z" fill="#4b41a6" stroke="#4b41a6"></path><path d="M150 131L112 243L273 195Z" fill="#104ea0" stroke="#104ea0"></path><path d="M960 419L960 323L824 416Z" fill="#513fa6" stroke="#513fa6"></path><path d="M960 211L960 76L866 181Z" fill="#583ca6" stroke="#583ca6"></path><path d="M0 361L134 417L151 294Z" fill="#1b4da1" stroke="#1b4da1"></path><path d="M151 294L134 417L234 359Z" fill="#004f9e" stroke="#004f9e"></path><path d="M255 424L207 540L379 540Z" fill="#4b41a6" stroke="#4b41a6"></path><path d="M134 417L207 540L255 424Z" fill="#513fa6" stroke="#513fa6"></path><path d="M960 540L960 419L824 416Z" fill="#104ea0" stroke="#104ea0"></path><path d="M257 0L129 0L150 131Z" fill="#513fa6" stroke="#513fa6"></path><path d="M0 123L0 242L112 243Z" fill="#2d4aa4" stroke="#2d4aa4"></path><path d="M960 76L960 0L850 0Z" fill="#254ba3" stroke="#254ba3"></path><path d="M0 540L139 540L134 417Z" fill="#1b4da1" stroke="#1b4da1"></path><path d="M134 417L139 540L207 540Z" fill="#4444a6" stroke="#4444a6"></path><path d="M817 540L960 540L824 416Z" fill="#104ea0" stroke="#104ea0"></path><path d="M0 123L112 243L150 131Z" fill="#254ba3" stroke="#254ba3"></path><path d="M112 243L0 361L151 294Z" fill="#2d4aa4" stroke="#2d4aa4"></path><path d="M129 0L0 123L150 131Z" fill="#3c46a6" stroke="#3c46a6"></path><path d="M0 242L0 361L112 243Z" fill="#1b4da1" stroke="#1b4da1"></path><path d="M0 361L0 422L134 417Z" fill="#004f9e" stroke="#004f9e"></path><path d="M129 0L0 0L0 123Z" fill="#4b41a6" stroke="#4b41a6"></path><path d="M0 422L0 540L134 417Z" fill="#3548a5" stroke="#3548a5"></path></g></svg>