<svg width="18" height="18" viewBox="0 0 18 18" fill="none" xmlns="http://www.w3.org/2000/svg">
    <path d="M10.5 11V16.5C10.5 17.3284 9.82843 18 9 18C8.17157 18 7.5 17.3284 7.5 16.5V11C7.5 10.7239 7.27614 10.5 7 10.5H1.5C0.671573 10.5 0 9.82843 0 9C0 8.17157 0.671573 7.5 1.5 7.5H7C7.27614 7.5 7.5 7.27614 7.5 7V1.5C7.5 0.671573 8.17157 0 9 0C9.82843 0 10.5 0.671573 10.5 1.5V7C10.5 7.27614 10.7239 7.5 11 7.5H16.5C17.3284 7.5 18 8.17157 18 9C18 9.82843 17.3284 10.5 16.5 10.5H11C10.7239 10.5 10.5 10.7239 10.5 11Z" fill="black"/>
</svg>
