<svg width="664" height="679" viewBox="0 0 664 679" fill="none" xmlns="http://www.w3.org/2000/svg">
<g filter="url(#filter0_d_21_19)">
<path fill-rule="evenodd" clip-rule="evenodd" d="M331.927 98.4123V420H342.77C380.884 395.953 487.077 356.725 606.94 392.187L612.854 77.5526C607.268 72.0479 589.591 60.5171 563.569 58.4312V1.93601C519.869 -5.30696 412.361 3.84816 331.927 98.4123ZM587.226 87.9825L563.569 77.5526V310.486C465.786 314.658 400.598 356.262 380.227 376.542C448.832 351.511 546.811 358.58 587.226 365.243V87.9825Z" fill="url(#paint0_linear_21_19)"/>
<path fill-rule="evenodd" clip-rule="evenodd" d="M331.927 98.4123V420H342.77C380.884 395.953 487.077 356.725 606.94 392.187L612.854 77.5526C607.268 72.0479 589.591 60.5171 563.569 58.4312V1.93601C519.869 -5.30696 412.361 3.84816 331.927 98.4123ZM587.226 87.9825L563.569 77.5526V310.486C465.786 314.658 400.598 356.262 380.227 376.542C448.832 351.511 546.811 358.58 587.226 365.243V87.9825Z" fill="url(#paint1_linear_21_19)"/>
<path fill-rule="evenodd" clip-rule="evenodd" d="M331.927 98.4123V420H321.084C282.97 395.953 176.777 356.725 56.9143 392.187L51 77.5526C56.5857 72.0479 74.2627 60.5171 100.285 58.4312V1.93601C143.985 -5.30696 251.493 3.84816 331.927 98.4123ZM76.6284 87.9825L100.285 77.5526V310.486C198.068 314.658 263.256 356.262 283.627 376.542C215.022 351.511 117.043 358.58 76.6284 365.243V87.9825Z" fill="url(#paint2_linear_21_19)"/>
<path fill-rule="evenodd" clip-rule="evenodd" d="M331.927 98.4123V420H321.084C282.97 395.953 176.777 356.725 56.9143 392.187L51 77.5526C56.5857 72.0479 74.2627 60.5171 100.285 58.4312V1.93601C143.985 -5.30696 251.493 3.84816 331.927 98.4123ZM76.6284 87.9825L100.285 77.5526V310.486C198.068 314.658 263.256 356.262 283.627 376.542C215.022 351.511 117.043 358.58 76.6284 365.243V87.9825Z" fill="url(#paint3_linear_21_19)"/>
</g>
<path d="M73.9378 488.453L68.4622 491.689C62.1156 481.484 51.9111 479.991 42.08 479.867C31.8756 479.867 15.6978 483.6 15.6978 497.538C15.6978 508.613 27.6444 511.227 42.3289 513.964C59.1289 517.2 76.5511 520.187 76.5511 538.978C76.4267 558.64 56.64 563.369 42.08 563.369C28.5156 563.369 13.0844 557.769 6.36444 544.453L12.3378 541.467C17.6889 552.044 31.3778 557.271 42.08 557.271C52.7822 557.271 69.8311 554.284 69.8311 538.853C69.9556 525.787 55.52 522.924 41.2089 520.187C25.28 517.076 8.97778 513.84 8.97778 497.787C8.60444 479.369 27.7689 473.644 42.08 473.644C54.5244 473.644 65.3511 475.636 73.9378 488.453ZM135.888 549.307L139.994 553.413C133.772 559.636 125.683 562.622 117.594 562.622C100.297 562.622 85.9856 550.676 85.9856 531.262C85.9856 511.849 99.7989 499.902 117.594 499.902C125.683 499.902 133.772 503.013 139.994 509.111L136.012 512.969C131.034 507.991 124.19 505.627 117.594 505.627C103.657 505.627 91.9589 514.711 91.9589 531.262C91.9589 547.813 103.657 556.898 117.594 556.898C124.19 556.898 130.91 554.284 135.888 549.307ZM152.424 474.889H158.273V511.973C163.251 503.138 171.838 499.778 180.424 499.653C197.598 499.653 206.184 510.729 206.184 526.782V562H200.211V526.782C200.211 514.089 194.238 505.502 180.424 505.502C167.482 505.502 158.522 515.458 158.522 528.276V562H152.424V474.889ZM250.433 562.871C233.135 562.871 219.197 550.924 219.197 531.387C219.197 511.849 233.135 499.404 250.433 499.404C267.731 499.404 281.669 511.849 281.669 531.387C281.669 550.924 267.731 562.871 250.433 562.871ZM250.433 556.898C264.371 556.898 275.695 547.316 275.695 531.387C275.695 515.458 264.371 505.129 250.433 505.129C236.495 505.129 225.171 515.458 225.171 531.387C225.171 547.316 236.495 556.898 250.433 556.898ZM324.079 562.871C306.781 562.871 292.843 550.924 292.843 531.387C292.843 511.849 306.781 499.404 324.079 499.404C341.377 499.404 355.314 511.849 355.314 531.387C355.314 550.924 341.377 562.871 324.079 562.871ZM324.079 556.898C338.017 556.898 349.341 547.316 349.341 531.387C349.341 515.458 338.017 505.129 324.079 505.129C310.141 505.129 298.817 515.458 298.817 531.387C298.817 547.316 310.141 556.898 324.079 556.898ZM369.351 474.889H375.449V562H369.351V474.889ZM467.357 562.124H451.055V526.907H408.246V562.124H391.819V475.013H408.246V511.724H451.055V475.013H467.357V562.124ZM482.094 500.649H497.276V532.756C497.276 542.089 502.379 549.182 512.085 549.182C521.419 549.182 527.765 541.342 527.765 532.009V500.649H542.823V562.124H529.259L528.263 553.787C521.916 560.009 516.068 562.996 507.481 562.996C492.796 562.996 482.094 551.92 482.094 532.88V500.649ZM590.191 513.342C580.608 513.342 572.395 520.56 572.395 531.262C572.395 542.338 580.608 549.307 590.191 549.307C599.897 549.307 607.613 541.964 607.613 531.262C607.613 520.187 599.897 513.342 590.191 513.342ZM556.217 475.013H571.4V508.987C575.008 502.64 585.088 499.156 591.56 499.156C609.48 499.156 622.795 510.107 622.795 531.262C622.795 551.422 609.231 563.369 591.186 563.369C583.72 563.369 576.128 560.88 571.4 553.538L570.404 562H556.217V475.013Z" fill="white"/>
<defs>
<filter id="filter0_d_21_19" x="0.742661" y="0" width="662.369" height="520.515" filterUnits="userSpaceOnUse" color-interpolation-filters="sRGB">
<feFlood flood-opacity="0" result="BackgroundImageFix"/>
<feColorMatrix in="SourceAlpha" type="matrix" values="0 0 0 0 0 0 0 0 0 0 0 0 0 0 0 0 0 0 127 0" result="hardAlpha"/>
<feOffset dy="50.2573"/>
<feGaussianBlur stdDeviation="25.1287"/>
<feComposite in2="hardAlpha" operator="out"/>
<feColorMatrix type="matrix" values="0 0 0 0 0 0 0 0 0 0 0 0 0 0 0 0 0 0 0.25 0"/>
<feBlend mode="normal" in2="BackgroundImageFix" result="effect1_dropShadow_21_19"/>
<feBlend mode="normal" in="SourceGraphic" in2="effect1_dropShadow_21_19" result="shape"/>
</filter>
<linearGradient id="paint0_linear_21_19" x1="613.755" y1="250.307" x2="335.775" y2="251.709" gradientUnits="userSpaceOnUse">
<stop offset="0.078125" stop-color="#2697BD"/>
<stop offset="1" stop-color="#342B66" stop-opacity="0.9"/>
</linearGradient>
<linearGradient id="paint1_linear_21_19" x1="613.755" y1="250.307" x2="335.775" y2="251.709" gradientUnits="userSpaceOnUse">
<stop offset="0.078125" stop-color="#2697BD"/>
<stop offset="1" stop-color="#342B66" stop-opacity="0.9"/>
</linearGradient>
<linearGradient id="paint2_linear_21_19" x1="49.785" y1="250.307" x2="327.765" y2="251.709" gradientUnits="userSpaceOnUse">
<stop offset="0.078125" stop-color="#2697BD"/>
<stop offset="1" stop-color="#342B66" stop-opacity="0.9"/>
</linearGradient>
<linearGradient id="paint3_linear_21_19" x1="49.785" y1="250.307" x2="327.765" y2="251.709" gradientUnits="userSpaceOnUse">
<stop offset="0.078125" stop-color="#2697BD"/>
<stop offset="1" stop-color="#342B66" stop-opacity="0.9"/>
</linearGradient>
</defs>
</svg>
