<svg width="56" height="56" viewBox="0 0 56 56" fill="none" xmlns="http://www.w3.org/2000/svg">
    <path d="M27.92 10.67C24.5083 10.67 21.1732 11.6817 18.3364 13.5771C15.4997 15.4726 13.2887 18.1667 11.9831 21.3187C10.6775 24.4707 10.3359 27.9391 11.0015 31.2853C11.667 34.6315 13.31 37.7051 15.7224 40.1176C18.1349 42.53 21.2085 44.173 24.5547 44.8385C27.9009 45.5041 31.3693 45.1625 34.5213 43.8569C37.6733 42.5513 40.3674 40.3403 42.2628 37.5036C44.1583 34.6668 45.17 31.3317 45.17 27.92C45.1647 23.3466 43.3456 18.9621 40.1117 15.7283C36.8779 12.4944 32.4934 10.6753 27.92 10.67ZM13.17 27.92C13.1761 24.2259 14.5654 20.668 17.0641 17.9472C19.5628 15.2264 22.9898 13.5399 26.67 13.22V42.62C22.9898 42.3001 19.5628 40.6136 17.0641 37.8928C14.5654 35.172 13.1761 31.6141 13.17 27.92ZM26.67 6.59V1.25C26.67 0.918479 26.8017 0.600537 27.0361 0.366117C27.2705 0.131696 27.5885 0 27.92 0C28.2515 0 28.5695 0.131696 28.8039 0.366117C29.0383 0.600537 29.17 0.918479 29.17 1.25V6.59C29.17 6.92152 29.0383 7.23946 28.8039 7.47388C28.5695 7.7083 28.2515 7.84 27.92 7.84C27.5885 7.84 27.2705 7.7083 27.0361 7.47388C26.8017 7.23946 26.67 6.92152 26.67 6.59ZM8.18 9.92C8.01251 9.67929 7.93498 9.38736 7.96096 9.09527C7.98695 8.80318 8.11481 8.52952 8.32216 8.32216C8.52952 8.11481 8.80318 7.98695 9.09527 7.96096C9.38736 7.93498 9.67929 8.01251 9.92 8.18L13.72 11.92C13.8364 12.0361 13.9288 12.1741 13.9918 12.3259C14.0548 12.4778 14.0872 12.6406 14.0872 12.805C14.0872 12.9694 14.0548 13.1322 13.9918 13.2841C13.9288 13.4359 13.8364 13.5739 13.72 13.69C13.4813 13.9209 13.1621 14.05 12.83 14.05C12.6639 14.0588 12.4978 14.0342 12.3415 13.9775C12.1851 13.9208 12.0418 13.8332 11.92 13.72L8.18 9.92ZM7.84 27.92C7.84 28.2515 7.7083 28.5695 7.47388 28.8039C7.23946 29.0383 6.92152 29.17 6.59 29.17H1.25C0.918479 29.17 0.600537 29.0383 0.366117 28.8039C0.131696 28.5695 0 28.2515 0 27.92C0 27.5885 0.131696 27.2705 0.366117 27.0361C0.600537 26.8017 0.918479 26.67 1.25 26.67H6.59C6.92152 26.67 7.23946 26.8017 7.47388 27.0361C7.7083 27.2705 7.84 27.5885 7.84 27.92ZM13.72 42.12C13.8364 42.2361 13.9288 42.3741 13.9918 42.5259C14.0548 42.6778 14.0872 42.8406 14.0872 43.005C14.0872 43.1694 14.0548 43.3322 13.9918 43.4841C13.9288 43.6359 13.8364 43.7739 13.72 43.89L9.92 47.66C9.80352 47.7775 9.66487 47.8707 9.5121 47.9342C9.35932 47.9977 9.19545 48.0303 9.03 48.03C8.86589 48.0312 8.70325 47.9991 8.55197 47.9354C8.40069 47.8718 8.26392 47.7781 8.15 47.66C8.03359 47.5439 7.94123 47.4059 7.87822 47.2541C7.8152 47.1022 7.78277 46.9394 7.78277 46.775C7.78277 46.6106 7.8152 46.4478 7.87822 46.2959C7.94123 46.1441 8.03359 46.0061 8.15 45.89L11.92 42.12C12.0366 41.999 12.1764 41.9028 12.331 41.8371C12.4857 41.7713 12.652 41.7375 12.82 41.7375C12.988 41.7375 13.1543 41.7713 13.309 41.8371C13.4636 41.9028 13.6034 41.999 13.72 42.12ZM29.17 49.25V54.59C29.17 54.9215 29.0383 55.2395 28.8039 55.4739C28.5695 55.7083 28.2515 55.84 27.92 55.84C27.5885 55.84 27.2705 55.7083 27.0361 55.4739C26.8017 55.2395 26.67 54.9215 26.67 54.59V49.25C26.67 48.9185 26.8017 48.6005 27.0361 48.3661C27.2705 48.1317 27.5885 48 27.92 48C28.2515 48 28.5695 48.1317 28.8039 48.3661C29.0383 48.6005 29.17 48.9185 29.17 49.25ZM47.66 45.92C47.7764 46.0361 47.8688 46.174 47.9318 46.3259C47.9948 46.4778 48.0272 46.6406 48.0272 46.805C48.0272 46.9694 47.9948 47.1322 47.9318 47.2841C47.8688 47.4359 47.7764 47.5739 47.66 47.69C47.5461 47.8081 47.4093 47.9018 47.258 47.9655C47.1068 48.0291 46.9441 48.0612 46.78 48.06C46.6145 48.0603 46.4507 48.0277 46.2979 47.9642C46.1451 47.9007 46.0065 47.8075 45.89 47.69L42.12 43.92C41.8813 43.6813 41.7472 43.3576 41.7472 43.02C41.7472 42.6824 41.8813 42.3587 42.12 42.12C42.3587 41.8813 42.6824 41.7472 43.02 41.7472C43.3576 41.7472 43.6813 41.8813 43.92 42.12L47.66 45.92ZM55.84 27.92C55.84 28.2515 55.7083 28.5695 55.4739 28.8039C55.2395 29.0383 54.9215 29.17 54.59 29.17H49.25C48.9185 29.17 48.6005 29.0383 48.3661 28.8039C48.1317 28.5695 48 28.2515 48 27.92C48 27.5885 48.1317 27.2705 48.3661 27.0361C48.6005 26.8017 48.9185 26.67 49.25 26.67H54.59C54.9215 26.67 55.2395 26.8017 55.4739 27.0361C55.7083 27.2705 55.84 27.5885 55.84 27.92ZM42.12 13.72C42.0036 13.6039 41.9112 13.4659 41.8482 13.3141C41.7852 13.1622 41.7528 12.9994 41.7528 12.835C41.7528 12.6706 41.7852 12.5078 41.8482 12.3559C41.9112 12.2041 42.0036 12.0661 42.12 11.95L45.92 8.18C46.0244 8.02992 46.1605 7.90457 46.3187 7.81281C46.4768 7.72104 46.6531 7.66508 46.8353 7.64887C47.0174 7.63267 47.2008 7.65662 47.3727 7.71903C47.5446 7.78143 47.7006 7.88078 47.8299 8.01007C47.9592 8.13936 48.0586 8.29543 48.121 8.46729C48.1834 8.63915 48.2073 8.82261 48.1911 9.00473C48.1749 9.18685 48.119 9.3632 48.0272 9.52134C47.9354 9.67948 47.8101 9.81557 47.66 9.92L43.92 13.72C43.8042 13.8349 43.6669 13.9259 43.5159 13.9877C43.3649 14.0495 43.2032 14.0808 43.04 14.08C42.8704 14.0839 42.7018 14.0541 42.5439 13.9923C42.3859 13.9305 42.2419 13.838 42.12 13.72Z" fill="black"/>
</svg>
